<svg xmlns="http://www.w3.org/2000/svg" width="60" height="60" viewBox="0 0 60 60"><path fill="#FFF" d="M47.32 36.516c-.736-5.443-3.737-9.41-7.434-9.41H22.614c-3.7 0-6.698 3.965-7.435 9.408-2.67 1.35-4.052 4.147-4.052 7.39 0 2.496.818 4.727 2.406 6.24v5.143h6.402V52.16h22.626v3.127h6.402v-5.144c1.588-1.513 2.406-3.743 2.406-6.24 0-3.24-1.383-6.04-4.05-7.387m-24.707-7.49h17.27c2.434 0 4.564 2.886 5.356 6.788a9.836 9.836 0 0 0-1.25-.137l.002-.023a4.112 4.112 0 0 0-4.108-4.11 4.113 4.113 0 0 0-4.11 4.11H19.037a9.73 9.73 0 0 0-1.784.16c.795-3.904 2.926-6.788 5.36-6.788m20.1 6.63h-5.65a2.83 2.83 0 0 1 2.827-2.828 2.83 2.83 0 0 1 2.823 2.827M18.08 46.588c-1.48 0-3.682-2.2-3.682-3.683 0-1.48 2.202-1.683 3.68-1.683a2.683 2.683 0 0 1 0 5.366m20.958-.477l-7.765 1-7.812-1a.64.64 0 0 1 0-1.28l7.813 1 7.766-1a.64.64 0 0 1 .642.64c0 .353-.287.64-.642.64m0-2.346l-7.765 1-7.812-1a.64.64 0 0 1 0-1.28l7.813 1 7.766-1a.64.64 0 0 1 0 1.28m5.382 2.824a2.682 2.682 0 0 1 0-5.366c1.48 0 3.682.2 3.682 1.683 0 1.487-2.204 3.683-3.682 3.683"/><text transform="matrix(.96 -.28 .28 .96 29.1 32.78)" fill="#FFF" font-family="'MinionPro-Regular'" font-size="34.464">*</text></svg>