<svg xmlns="http://www.w3.org/2000/svg" width="60" height="60" viewBox="0 0 60 60"><path fill="#FFF" d="M42.932 38.642c-3.067 0-5.563 2.496-5.563 5.563s2.495 5.562 5.562 5.562a5.572 5.572 0 0 0 5.563-5.562 5.57 5.57 0 0 0-5.563-5.563m0 9.236a3.682 3.682 0 0 1-3.678-3.678 3.68 3.68 0 0 1 3.678-3.676 3.68 3.68 0 0 1 3.676 3.676 3.68 3.68 0 0 1-3.676 3.678"/><path fill="#FFF" d="M31.89 35.804h6.595v-.965h3.508c5.102 0 7.768-3.63 7.768-8.105 0-3.186-1.357-5.933-3.976-7.257-.72-5.346-3.67-9.243-7.298-9.243H21.52c-3.632 0-6.578 3.896-7.302 9.242-2.62 1.322-3.98 4.072-3.98 7.258 0 2.448.805 4.64 2.364 6.125v5.052h6.286V34.84h2.63v.962h6.595v12.39h-3.19v1.256h10.153v-1.255h-3.19v-12.39h.004zm3.817-17.172a2.778 2.778 0 0 1 2.775-2.778 2.78 2.78 0 0 1 2.777 2.778h-5.553zm2.57 7.334c0 .348-.282.63-.63.63H22.353a.63.63 0 0 1 0-1.26H37.65c.345 0 .626.28.626.63m7.29.77a2.634 2.634 0 1 1-5.27 0 2.634 2.634 0 0 1 5.27 0m-28.497 2.633a2.633 2.633 0 0 1 0-5.27 2.635 2.635 0 0 1 0 5.27m.94-10.738a9.5 9.5 0 0 0-1.753.158c.778-3.835 2.87-6.668 5.264-6.668h16.963c2.39 0 4.48 2.833 5.26 6.668a9.163 9.163 0 0 0-1.23-.136c0-.01.004-.016.004-.024a4.04 4.04 0 0 0-4.035-4.035 4.038 4.038 0 0 0-4.033 4.035l-16.44.002zM22.352 28.9a.628.628 0 0 1 0-1.258H37.65a.628.628 0 0 1 0 1.257H22.352z"/></svg>