<svg xmlns="http://www.w3.org/2000/svg" width="70" height="50" viewBox="0 0 70 50"><path fill="#FFF" d="M50.788 29.95c-.675-5.5-3.708-9.53-7.46-9.53H26.66c-3.754 0-6.79 4.033-7.464 9.53-2.37 1.356-3.62 3.94-3.62 6.942 0 1.88.51 3.587 1.453 4.95v6.03h7.916v-3.018h20.096v3.018h7.914v-6.03c.943-1.36 1.453-3.066 1.453-4.95 0-3.005-1.253-5.585-3.622-6.942m-28.5 9.528a2.586 2.586 0 0 1 0-5.173 2.587 2.587 0 0 1 0 5.173m.926-10.55c-.515 0-.99.06-1.454.13.746-3.606 2.687-6.264 4.903-6.264H43.33c2.214 0 4.155 2.657 4.903 6.265-.25-.038-.51-.05-.772-.067 0-.02.01-.043.01-.063a4.143 4.143 0 0 0-4.14-4.14 4.14 4.14 0 0 0-4.137 4.14h-15.98v-.002zm19.3 10.263h-15.03a.79.79 0 0 1 0-1.58h15.03a.79.79 0 0 1 0 1.58m0-2.263h-15.03a.792.792 0 0 1 0-1.584h15.03a.792.792 0 0 1 0 1.584m-1.737-8a2.56 2.56 0 0 1 2.557-2.555 2.56 2.56 0 0 1 2.554 2.556h-5.11zm6.926 10.55a2.586 2.586 0 0 1 0-5.173 2.586 2.586 0 0 1 0 5.174M15.58.71h38.83v3.165H15.58zM32.86 12.962a2.133 2.133 0 0 0 4.268 0c0-1.182-2.134-4.925-2.134-4.925s-2.135 3.745-2.135 4.924M26.428 9.434a2.137 2.137 0 0 0 4.275 0c0-1.184-2.138-4.93-2.138-4.93s-2.137 3.744-2.137 4.93M39.286 9.434a2.136 2.136 0 0 0 4.273 0c0-1.184-2.136-4.93-2.136-4.93s-2.137 3.744-2.137 4.93"/><path fill="#FFF" d="M67.443 22.504v-3.17H63.22V1.505H6.77v17.83H2.545v3.17H6.77v.506H2.545v3.164H6.77v.504H2.545v3.164H6.77v.51H2.545v3.164H6.77v.504H2.545v3.165H6.77v.505H2.545v3.165H6.77v.502H2.545v3.167H6.77v.508H2.545v3.165h10.026v-3.165H8.35v-.508h4.222v-3.167H8.35v-.502h4.222V37.69H8.35v-.505h4.222V34.02H8.35v-.504h4.222V30.35H8.35v-.508h4.222v-3.164H8.35v-.504h4.222V23.01H8.35v-.506h4.222v-3.17H8.35V3.088h53.287v16.248h-4.22v3.17h4.22v.505h-4.22v3.164h4.22v.504h-4.22v3.164h4.22v.51h-4.22v3.164h4.22v.504h-4.22v3.165h4.22v.505h-4.22v3.165h4.22v.502h-4.22v3.167h4.22v.508h-4.22v3.165h10.026v-3.165H63.22v-.508h4.223v-3.167H63.22v-.502h4.223V37.69H63.22v-.505h4.223V34.02H63.22v-.504h4.223V30.35H63.22v-.508h4.223v-3.164H63.22v-.504h4.223V23.01H63.22v-.506z"/></svg>