<svg xmlns="http://www.w3.org/2000/svg" width="60" height="50" viewBox="0 0 60 50"><path fill="#FFF" d="M52.354 10.01v15.93H47.29v-4.283c.91-1.315 1.397-2.96 1.397-4.777 0-2.894-1.205-5.384-3.49-6.692C44.547 4.888 41.62 1 38.005 1H21.94c-3.62 0-6.543 3.888-7.196 9.188-2.285 1.307-3.49 3.798-3.49 6.692 0 1.816.493 3.462 1.4 4.777v4.284H7.59V10.01H1.486V49.2H7.59V28.99h17.342v-3.05h-4.645v-1.383H39.66v1.384H35.01v3.05h17.342v20.207h6.104V10.01h-6.104zM17.72 19.375a2.49 2.49 0 0 1-2.49-2.493 2.494 2.494 0 1 1 2.49 2.494m.896-10.17c-.5 0-.954.058-1.4.126.718-3.48 2.59-6.043 4.727-6.043H38.01c2.14 0 4.004 2.562 4.723 6.043-.233-.038-.492-.05-.742-.068 0-.02.006-.04.006-.06 0-2.2-1.785-3.99-3.99-3.99C35.81 5.21 34.02 7 34.02 9.2H18.615zm18.6 9.895H22.722a.76.76 0 0 1-.76-.765c0-.422.34-.763.76-.763h14.492a.76.76 0 0 1 .764.763.76.76 0 0 1-.765.764m0-2.185H22.723c-.423 0-.76-.342-.76-.764s.34-.762.76-.762h14.492a.76.76 0 0 1 .764.763.76.76 0 0 1-.765.765m-1.667-7.712c0-1.358 1.104-2.463 2.463-2.463s2.465 1.105 2.465 2.463h-4.927zm6.675 10.17a2.49 2.49 0 0 1-2.494-2.492c0-1.378 1.118-2.495 2.493-2.495s2.492 1.117 2.492 2.496a2.488 2.488 0 0 1-2.492 2.494"/></svg>