<svg xmlns="http://www.w3.org/2000/svg" width="60" height="50" viewBox="0 0 60 50"><path fill="#FFF" d="M46.22 27.426c-.734-5.443-3.735-9.41-7.433-9.41h-17.27c-3.7 0-6.7 3.965-7.437 9.408-2.668 1.35-4.05 4.147-4.05 7.39 0 2.496.816 4.726 2.405 6.24v5.143h6.402V43.07h22.627v3.127h6.4v-5.144c1.588-1.514 2.407-3.743 2.407-6.24 0-3.24-1.383-6.04-4.05-7.387m-24.707-7.49h17.272c2.434 0 4.563 2.886 5.355 6.79a9.638 9.638 0 0 0-1.25-.138c0-.01.003-.016.003-.023 0-2.266-1.84-4.11-4.108-4.11a4.113 4.113 0 0 0-4.11 4.11H17.94a9.73 9.73 0 0 0-1.784.16c.793-3.906 2.924-6.788 5.36-6.788m20.1 6.628H35.96a2.83 2.83 0 0 1 2.83-2.828 2.83 2.83 0 0 1 2.823 2.828M16.98 37.498a2.683 2.683 0 1 1 .003-5.366 2.683 2.683 0 0 1-.004 5.366m20.958-.477h-15.58a.64.64 0 0 1 0-1.28h15.58a.64.64 0 1 1 0 1.28m0-2.346h-15.58a.64.64 0 0 1 0-1.28h15.58a.64.64 0 1 1 0 1.28m5.38 2.824a2.684 2.684 0 0 1 0-5.366 2.683 2.683 0 0 1 0 5.366m-3.085-26.77c.92 1.47 2.537 2.456 4.4 2.458 2.038 0 3.78-1.185 4.635-2.894h-3.46c-1.225 0-2.217-1.028-2.217-2.305 0-1.268.995-2.298 2.217-2.3h3.458a5.173 5.173 0 0 0-4.637-2.895c-1.858 0-3.477.987-4.397 2.46H18.356a4.145 4.145 0 0 0-3.14-1.45 4.184 4.184 0 0 0-4.188 4.188 4.19 4.19 0 0 0 4.184 4.186c1.26 0 2.375-.572 3.145-1.447h21.878zM14.113 9.9L13.01 7.993l1.104-1.907 2.2-.003 1.104 1.91L16.316 9.9h-2.203z"/></svg>