<svg xmlns="http://www.w3.org/2000/svg" width="60" height="50" viewBox="0 0 60 50"><path fill="#FFF" d="M45.863 30.2c-.676-5.523-3.724-9.575-7.49-9.575H21.634c-3.77 0-6.815 4.05-7.497 9.57-2.38 1.366-3.636 3.957-3.636 6.972 0 1.89.512 3.605 1.46 4.978v6.052h7.95v-3.032h20.18v3.032h7.95v-6.052c.948-1.372 1.46-3.088 1.46-4.978-.003-3.01-1.26-5.606-3.64-6.968M17.24 39.765c-1.437 0-2.6-1.16-2.6-2.6a2.598 2.598 0 0 1 5.198 0 2.6 2.6 0 0 1-2.6 2.6m.928-10.593a9.05 9.05 0 0 0-1.46.133c.75-3.626 2.698-6.296 4.924-6.296h16.74c2.225 0 4.174 2.67 4.92 6.296-.248-.04-.51-.052-.772-.07 0-.023.006-.04.006-.063a4.158 4.158 0 0 0-4.154-4.157 4.16 4.16 0 0 0-4.153 4.157h-16.05zM37.55 39.48H22.452a.794.794 0 0 1 0-1.588H37.55a.795.795 0 1 1 0 1.587m0-2.274H22.452a.795.795 0 0 1 0-1.587H37.55a.794.794 0 1 1 0 1.586m-1.743-8.033a2.564 2.564 0 0 1 5.127 0h-5.127zm6.955 10.593a2.598 2.598 0 0 1 0-5.2 2.597 2.597 0 0 1 2.598 2.6c0 1.438-1.162 2.6-2.598 2.6m15.59-38.14v46.57h-1.59V3.214H3.24v44.982H1.65V1.626H58.35zM4.297 4.317h51.408v3.18H4.3l-.003-3.18zm0 4.435h51.408v3.18H4.3l-.003-3.18zm0 4.434h51.408v3.18H4.3l-.003-3.18z"/></svg>