<svg xmlns="http://www.w3.org/2000/svg" width="30" height="30" viewBox="0 0 30 30"><path fill="none" stroke="#C0392B" stroke-linecap="round" stroke-linejoin="round" stroke-miterlimit="10" d="M10.214 13.012a2 2 0 0 0 0-2.828l-2.122-2.12a1.998 1.998 0 0 0-2.827 0L4.1 9.225A2.995 2.995 0 0 0 3.724 13a46.51 46.51 0 0 0 13 13 3 3 0 0 0 3.773-.378l1.164-1.164a2 2 0 0 0 0-2.828l-2.12-2.12a2 2 0 0 0-2.83 0l-.707.707a47.6 47.6 0 0 1-6.496-6.498l.707-.708zM14.722 3.5c6.353 0 11.5 5.15 11.5 11.5M14.722 7.5a7.5 7.5 0 0 1 7.5 7.5M14.722 11.5a3.5 3.5 0 0 1 3.5 3.5"/></svg>